<?xml version="1.0" standalone="no"?>
<!DOCTYPE svg PUBLIC "-//W3C//DTD SVG 20010904//EN"
 "http://www.w3.org/TR/2001/REC-SVG-20010904/DTD/svg10.dtd">
<svg version="1.0" xmlns="http://www.w3.org/2000/svg"
 width="6001.000000pt" height="4001.000000pt" viewBox="0 0 6001.000000 4001.000000"
 preserveAspectRatio="xMidYMid meet">

<g transform="translate(0.000000,4001.000000) scale(0.100000,-0.100000)"
fill="#000000" stroke="none">
<path d="M1631 39918 c354 -405 1092 -1160 1504 -1539 410 -377 824 -738 1196
-1041 l199 -163 0 -4277 c0 -2595 -4 -4278 -9 -4278 -14 0 -651 266 -896 375
-1474 653 -2643 1326 -3502 2017 l-123 99 0 -48 c1 -48 1 -48 82 -113 1037
-819 2471 -1604 4273 -2338 l170 -69 3 -4281 2 -4282 -2265 0 -2265 0 0 -30 0
-30 2265 0 2265 0 0 -4283 0 -4282 -277 -114 c-844 -347 -1754 -777 -2368
-1118 -675 -375 -1234 -736 -1702 -1100 -193 -150 -185 -141 -181 -192 l3 -43
70 57 c828 680 2044 1387 3510 2038 233 103 929 397 941 397 2 0 4 -1926 4
-4279 l0 -4279 -217 -179 c-970 -798 -1839 -1623 -2582 -2451 l-73 -82 49 0
49 0 181 198 c580 634 1296 1324 2013 1937 219 188 558 469 571 473 5 2 9
-494 9 -1302 l0 -1306 40 0 40 0 0 1343 0 1342 33 26 c500 398 1174 900 1649
1227 528 364 1030 690 1558 1012 102 62 188 118 192 124 4 6 8 8 8 4 0 -4 79
40 175 97 96 58 189 111 205 120 18 9 28 21 24 27 -4 7 -3 8 4 4 15 -9 143 65
135 77 -3 6 -1 7 4 4 15 -10 105 42 97 55 -4 7 -2 8 4 4 11 -7 72 19 72 30 0
3 -5 2 -12 -2 -7 -4 -8 -3 -4 5 4 6 11 9 16 6 5 -3 23 1 41 10 22 12 29 21 24
33 -5 13 -3 14 6 5 14 -14 42 -6 32 10 -4 6 0 8 10 4 9 -3 18 0 21 9 3 9 10
13 14 10 5 -3 9 1 9 9 0 11 -4 12 -13 4 -9 -7 -16 -4 -27 11 l-14 20 -37 -25
c-20 -14 -40 -25 -43 -25 -3 0 -12 -8 -20 -17 -8 -10 -12 -12 -8 -5 3 6 -10 3
-29 -9 -20 -12 -36 -23 -36 -26 0 -2 5 -1 12 3 7 4 8 3 4 -5 -4 -6 -11 -9 -16
-6 -12 7 -102 -42 -113 -61 -5 -8 -12 -12 -18 -9 -5 4 -22 -2 -37 -12 -15 -10
-36 -23 -47 -30 -11 -6 -19 -16 -17 -23 1 -6 -2 -9 -8 -5 -12 7 -19 4 -202
-103 -81 -47 -144 -90 -141 -95 3 -6 1 -7 -5 -3 -10 6 -141 -67 -153 -86 -3
-5 -9 -9 -13 -8 -16 5 -697 -421 -1131 -707 -685 -452 -1325 -911 -1928 -1382
-131 -102 -247 -192 -258 -200 -19 -13 -19 38 -19 4250 l0 4264 343 132 c1079
417 2262 812 3569 1193 43 13 75 27 72 31 -3 5 2 6 10 3 9 -3 24 -3 34 1 9 4
24 9 32 10 18 2 128 33 150 42 8 3 25 8 38 10 39 7 72 22 72 34 0 9 -3 9 -14
0 -11 -9 -15 -8 -20 5 -4 9 -4 19 -1 22 3 3 5 1 5 -5 0 -6 9 -9 20 -6 14 4 20
0 20 -11 0 -18 11 -21 26 -6 6 6 24 13 40 16 15 3 35 11 43 17 12 9 13 9 7 0
-12 -20 1 -15 24 10 16 16 20 18 15 4 -6 -14 -3 -16 11 -11 11 4 23 9 29 12 5
3 19 7 31 8 12 1 52 12 90 23 38 11 74 21 79 22 6 0 17 5 26 10 9 4 28 10 43
13 48 9 66 17 60 28 -4 5 4 4 17 -2 23 -13 23 -13 7 12 -11 16 -12 25 -5 25 7
0 21 4 32 8 11 4 16 3 10 -2 -12 -10 -16 -43 -5 -43 10 0 24 59 17 67 -3 3
-23 -1 -44 -8 -21 -7 -41 -14 -45 -15 -5 -1 -11 -3 -15 -4 -5 -1 -11 -2 -15
-1 -12 2 -9 -14 5 -28 10 -10 9 -11 -5 -6 -10 4 -18 11 -18 16 0 5 -7 9 -15 9
-20 0 -19 -10 3 -27 15 -12 14 -13 -8 -1 -33 16 -39 17 -77 2 -17 -7 -35 -9
-39 -6 -4 4 -4 1 0 -6 4 -7 13 -9 19 -5 7 4 6 0 -2 -10 -14 -18 -26 -24 -17
-8 7 11 -31 21 -51 14 -14 -5 -13 -8 3 -20 10 -7 14 -13 8 -13 -5 0 -2 -5 6
-10 8 -5 10 -10 4 -10 -6 0 -19 11 -29 24 -17 22 -20 23 -50 10 -18 -7 -36
-10 -40 -6 -5 4 -5 1 -1 -6 4 -7 12 -10 17 -7 5 4 17 2 26 -4 15 -8 12 -9 -12
-7 -16 2 -36 -1 -44 -8 -12 -9 -13 -8 -8 7 7 18 -8 24 -18 6 -4 -6 -13 -8 -21
-5 -13 5 -19 -6 -15 -27 1 -5 -3 -6 -9 -2 -6 3 -8 11 -5 16 11 17 -4 9 -29
-15 -13 -14 -20 -26 -15 -28 5 -2 -1 -9 -13 -17 -21 -13 -22 -13 -9 2 11 14
11 17 0 17 -8 1 -1 8 14 16 16 9 26 18 24 21 -3 3 -12 1 -19 -3 -7 -5 -21 -9
-31 -9 -10 0 -22 -7 -27 -15 -6 -9 -10 -10 -10 -3 0 13 -112 -14 -118 -29 -2
-4 -7 -6 -11 -3 -9 5 -153 -34 -161 -44 -3 -3 -18 -7 -35 -8 -16 -1 -31 -7
-33 -13 -2 -5 -7 -8 -11 -5 -7 4 -125 -26 -161 -41 -8 -4 -24 -8 -35 -10 -29
-4 -640 -190 -990 -300 -877 -277 -1735 -577 -2488 -868 -137 -53 -250 -96
-253 -96 -2 0 -4 1919 -4 4265 l0 4265 2453 0 c1348 0 2457 4 2462 8 6 4 12
17 12 30 l2 22 -2465 0 -2464 0 0 4265 0 4265 23 -9 c12 -5 105 -41 207 -81
251 -98 641 -243 955 -355 613 -219 1715 -582 1734 -571 5 4 11 2 13 -3 3 -8
433 -143 703 -221 55 -16 147 -43 205 -59 58 -17 111 -29 118 -26 7 3 11 1 8
-4 -3 -5 3 -11 15 -14 18 -5 18 -3 7 11 -10 14 -8 13 9 -1 21 -18 143 -60 151
-52 3 2 17 -2 33 -10 33 -18 43 -19 34 -5 -3 6 9 1 27 -9 18 -11 49 -21 69
-24 19 -2 45 -9 56 -15 17 -9 22 -9 27 4 4 10 12 14 22 10 9 -4 23 -1 30 5 12
10 13 9 8 -5 -3 -9 -1 -16 6 -16 6 0 8 5 4 12 -4 7 -3 8 4 4 7 -4 12 -2 12 3
0 10 -14 15 -32 12 -5 0 -8 4 -8 9 0 14 -27 12 -33 -2 -3 -7 -6 -4 -6 6 -1 11
-4 17 -7 14 -3 -4 -21 0 -40 8 -19 8 -34 11 -34 8 0 -4 -6 -1 -14 5 -7 6 -21
9 -30 5 -9 -3 -16 -2 -16 4 0 9 -61 27 -87 25 -7 0 -13 3 -13 9 0 5 -6 8 -12
7 -7 -1 -26 3 -43 10 -16 7 -44 13 -61 14 -18 1 -30 5 -29 8 2 3 -17 11 -43
18 -109 28 -813 241 -1137 342 -958 302 -1838 610 -2678 939 l-157 61 0 4266
0 4265 43 -34 c379 -309 1077 -825 1652 -1222 626 -432 1856 -1209 1884 -1191
5 3 13 0 17 -6 4 -8 3 -9 -4 -5 -7 4 -12 5 -12 2 0 -7 71 -44 84 -44 5 0 12
-5 15 -10 13 -21 232 -143 244 -136 6 4 9 4 5 -1 -13 -14 25 -35 40 -23 10 8
11 6 6 -8 -4 -10 -4 -16 0 -12 5 4 18 -2 29 -13 12 -11 27 -17 35 -14 7 2 11
1 8 -3 -5 -8 64 -50 72 -44 3 2 8 -1 11 -6 13 -21 133 -83 149 -77 9 3 13 3 9
-1 -4 -4 -2 -13 4 -21 10 -11 15 -11 27 -1 9 7 13 8 10 3 -4 -6 7 -18 23 -28
17 -9 27 -12 24 -7 -3 6 -1 10 5 10 6 0 8 5 4 12 -4 6 -3 8 3 5 5 -3 9 -16 8
-29 -1 -18 9 -29 52 -50 59 -31 88 -37 57 -12 -18 15 -18 15 3 5 15 -8 24 -8
28 -1 5 8 11 8 19 1 7 -6 17 -7 21 -3 5 4 5 2 2 -5 -4 -6 -2 -13 5 -15 7 -3 5
-7 -6 -11 -9 -4 -15 -3 -12 2 3 5 -1 14 -8 21 -12 9 -17 7 -27 -12 -11 -21
-11 -22 5 -9 14 12 16 12 10 -2 -4 -12 0 -15 19 -13 18 2 24 -1 20 -10 -3 -8
6 -18 23 -25 16 -6 36 -17 45 -25 20 -18 31 -6 37 36 l3 25 -24 -23 c-21 -20
-25 -21 -37 -7 -7 8 -16 13 -19 10 -4 -2 -8 2 -8 10 0 8 3 13 5 10 3 -3 11 0
19 7 11 9 13 8 11 -3 -2 -8 3 -13 10 -11 8 1 11 -2 6 -9 -4 -8 -3 -9 5 -5 14
9 0 31 -32 48 -15 8 -18 7 -11 -4 4 -7 -9 2 -30 20 -30 27 -41 31 -52 21 -12
-9 -13 -9 -9 3 4 11 -2 18 -19 22 -14 3 -26 11 -26 16 0 5 -7 7 -15 4 -8 -4
-15 -10 -15 -15 0 -4 6 -6 13 -3 7 2 21 -2 31 -9 16 -12 16 -14 2 -14 -9 0
-16 4 -16 9 0 5 -12 6 -26 4 -25 -5 -25 -5 -9 21 9 14 12 23 7 19 -6 -3 -12
-1 -14 4 -3 10 -21 16 -51 19 -5 1 -5 7 -2 14 4 6 0 4 -8 -6 -13 -16 -15 -16
-21 -2 -3 9 -2 13 4 10 6 -3 10 -2 10 4 0 16 -24 19 -35 4 -9 -12 -15 -11 -36
6 -15 11 -30 17 -34 13 -5 -4 -5 -1 -1 6 4 7 11 10 16 7 5 -3 12 0 16 7 4 7 4
10 -1 6 -4 -4 -22 3 -39 16 -59 43 -125 76 -131 66 -3 -5 -12 -10 -18 -9 -9 0
-9 2 1 6 17 7 15 16 -9 31 -17 11 -24 11 -37 0 -15 -12 -16 -11 -3 5 14 18 12
20 -31 20 -9 0 -14 5 -12 11 4 11 -229 149 -252 149 -7 0 -11 3 -9 7 4 7 -89
62 -101 60 -4 -1 -10 3 -13 8 -9 15 -212 135 -228 135 -7 0 -11 2 -8 5 5 6
-249 162 -264 162 -5 0 -11 4 -13 8 -1 5 -46 34 -98 67 -122 75 -484 304 -577
366 -40 26 -73 45 -73 41 0 -4 -4 -2 -8 4 -4 6 -104 75 -222 154 -354 236
-800 546 -1035 720 -27 20 -104 77 -170 125 -224 165 -419 314 -680 518 l-260
204 -3 1401 -2 1402 -40 0 -40 0 -2 -1365 -3 -1365 -190 157 c-917 754 -1849
1641 -2538 2416 l-140 157 -50 0 -49 0 73 -82z m7063 -5526 c3 -5 -1 -9 -9 -9
-8 0 -12 4 -9 9 3 4 7 8 9 8 2 0 6 -4 9 -8z m151 -64 c5 4 5 2 2 -5 -4 -6 -2
-14 3 -16 6 -3 5 -4 -1 -3 -7 1 -19 13 -27 27 -12 21 -12 22 0 7 8 -10 19 -14
23 -10z m191 -112 c1 -7 -4 -13 -12 -13 -9 0 -11 4 -4 12 5 7 8 15 5 18 -3 4
-2 5 2 2 4 -3 8 -11 9 -19z m-336 -7056 c-8 -5 -19 -10 -25 -10 -5 0 -3 5 5
10 8 5 20 10 25 10 6 0 3 -5 -5 -10z m194 -59 c-2 -3 -12 3 -22 13 -16 17 -16
18 5 5 12 -7 20 -15 17 -18z m86 -2 c0 -5 -10 -8 -22 -8 -18 1 -19 2 -5 6 9 2
14 9 11 15 -4 7 -2 8 4 4 7 -4 12 -11 12 -17z m474 -14160 c-3 -5 -10 -7 -15
-3 -5 3 -7 10 -3 15 3 5 10 7 15 3 5 -3 7 -10 3 -15z m-100 -20 c-2 -4 1 -10
6 -12 6 -3 5 -4 -2 -3 -7 2 -23 -5 -34 -16 -17 -15 -23 -17 -30 -6 -4 7 -3 10
1 5 9 -8 47 22 40 33 -2 4 2 7 10 7 8 0 12 -4 9 -8z m-161 -64 c-3 -9 -8 -14
-10 -11 -3 3 -2 9 2 15 9 16 15 13 8 -4z m-449 -133 c2 -4 -5 -9 -17 -9 -17
-2 -19 0 -7 7 18 12 18 12 24 2z"/>
<path d="M8925 34301 c6 -11 4 -13 -11 -8 -18 7 -18 6 1 -8 23 -18 36 -1 15
18 -10 9 -11 9 -5 -2z"/>
<path d="M9230 34096 c0 -2 8 -10 18 -17 15 -13 16 -12 3 4 -13 16 -21 21 -21
13z"/>
<path d="M9315 34080 c3 -6 1 -10 -5 -10 -6 0 -9 -4 -5 -9 3 -5 1 -12 -5 -16
-5 -3 -10 -11 -10 -17 0 -6 6 -6 15 2 13 10 18 11 28 1 9 -10 8 -11 -5 -6 -11
4 -18 2 -18 -5 0 -6 5 -8 10 -5 6 3 10 0 10 -7 0 -8 5 -5 11 5 8 13 8 22 1 29
-6 6 -8 16 -6 23 3 7 -2 15 -11 19 -9 3 -13 2 -10 -4z"/>
<path d="M9340 34055 c0 -9 58 -34 64 -27 4 3 4 -2 1 -13 -5 -14 -4 -16 3 -7
7 11 10 11 15 -3 5 -10 3 -14 -4 -9 -7 4 -10 1 -7 -7 3 -8 11 -13 17 -11 7 1
10 -2 6 -7 -3 -6 -13 -8 -23 -5 -9 2 1 -4 23 -15 21 -11 43 -17 47 -15 4 3 8
-1 8 -9 0 -15 40 -31 73 -30 9 0 17 -4 17 -8 0 -5 4 -9 8 -9 5 0 9 7 9 15 0 8
-4 12 -9 9 -4 -3 -8 1 -8 8 0 8 -3 9 -8 3 -12 -16 -35 -18 -29 -2 3 8 0 20 -6
26 -9 9 -7 11 8 5 11 -4 5 5 -14 19 -34 27 -40 27 -76 -2 -20 -16 -20 -16 -2
6 11 12 16 26 13 31 -9 15 -83 51 -90 45 -3 -4 -6 -1 -6 5 0 7 -7 12 -15 12
-8 0 -15 -2 -15 -5z m168 -108 c17 -18 19 -24 7 -24 -8 0 -13 3 -10 5 9 9 -17
32 -28 25 -6 -3 -7 -1 -3 5 9 16 9 16 34 -11z"/>
<path d="M9355 34020 c-3 -5 3 -19 13 -31 21 -21 37 -13 26 14 -7 19 -31 29
-39 17z"/>
<path d="M9643 33885 c0 -6 12 -19 26 -30 16 -11 21 -13 14 -4 -10 12 -10 18
0 29 9 11 7 10 -7 0 -18 -13 -19 -13 -14 1 4 9 1 16 -6 16 -7 0 -13 -5 -13
-12z"/>
<path d="M9702 33857 c-1 -15 1 -18 7 -8 6 9 10 6 15 -13 3 -14 12 -26 18 -26
9 0 9 3 0 12 -7 7 -12 20 -12 29 0 26 -26 31 -28 6z"/>
<path d="M9750 33843 c0 -7 5 -15 10 -18 6 -4 8 -10 5 -15 -7 -11 24 -42 36
-35 5 4 9 2 9 -3 0 -5 15 -21 33 -35 29 -22 33 -23 33 -7 0 11 -5 16 -15 12
-9 -3 -12 -1 -7 6 5 8 1 10 -10 5 -13 -5 -15 -3 -9 7 5 8 4 11 -2 7 -6 -4 -14
0 -17 9 -8 22 -8 26 4 19 6 -3 10 -1 10 5 0 6 -8 10 -17 8 -11 -2 -17 2 -15
10 1 8 -2 11 -9 6 -7 -4 -18 1 -26 11 -7 11 -13 14 -13 8z m50 -55 c0 -6 -6
-5 -15 2 -8 7 -15 14 -15 16 0 2 7 1 15 -2 8 -4 15 -11 15 -16z"/>
<path d="M9640 33836 c0 -2 7 -6 15 -10 8 -3 15 -1 15 4 0 6 -7 10 -15 10 -8
0 -15 -2 -15 -4z"/>
<path d="M9696 33822 c-3 -5 1 -9 9 -9 8 0 12 4 9 9 -3 4 -7 8 -9 8 -2 0 -6
-4 -9 -8z"/>
<path d="M9840 33798 c0 -2 9 -11 20 -21 11 -9 20 -13 20 -7 0 5 -9 14 -20 20
-11 6 -20 9 -20 8z"/>
<path d="M10020 33676 c0 -2 8 -10 18 -17 15 -13 16 -12 3 4 -13 16 -21 21
-21 13z"/>
<path d="M10056 33668 c3 -5 10 -6 15 -3 13 9 11 12 -6 12 -8 0 -12 -4 -9 -9z"/>
<path d="M10156 33618 c3 -5 10 -6 15 -3 13 9 11 12 -6 12 -8 0 -12 -4 -9 -9z"/>
<path d="M10336 33523 c-6 -14 -5 -15 5 -6 7 7 10 15 7 18 -3 3 -9 -2 -12 -12z"/>
<path d="M10456 33435 c-11 -8 -15 -15 -9 -15 6 0 16 7 23 15 16 19 11 19 -14
0z"/>
<path d="M9091 27066 c-12 -22 -15 -23 -40 -10 -31 17 -41 17 -41 3 0 -5 5 -7
10 -4 6 3 10 1 10 -5 0 -7 6 -10 14 -7 8 3 16 2 18 -3 2 -6 17 -11 33 -12 17
-1 36 -6 43 -11 6 -5 12 -6 12 -2 0 4 7 2 15 -5 12 -10 18 -10 29 -1 11 9 16
9 22 0 5 -8 3 -9 -6 -4 -9 5 -11 4 -6 -3 9 -16 56 14 56 36 0 13 -3 12 -14 -3
-12 -17 -16 -18 -31 -5 -10 8 -21 14 -24 12 -3 -2 -7 2 -9 10 -2 8 0 9 5 3 11
-14 33 -17 33 -5 0 6 -7 10 -15 10 -23 0 -22 0 -59 15 -44 19 -40 19 -55 -9z
m26 -1 c0 -8 -4 -12 -9 -9 -5 3 -6 10 -3 15 9 13 12 11 12 -6z m37 -3 c3 -5
-1 -9 -9 -9 -8 0 -12 4 -9 9 3 4 7 8 9 8 2 0 6 -4 9 -8z m26 -37 c11 -13 10
-14 -4 -9 -9 3 -16 10 -16 15 0 13 6 11 20 -6z"/>
<path d="M9225 27040 c-3 -5 -1 -10 4 -10 6 0 11 5 11 10 0 6 -2 10 -4 10 -3
0 -8 -4 -11 -10z"/>
<path d="M9270 27031 c0 -5 3 -11 8 -14 4 -2 2 -2 -5 -1 -13 3 -39 -24 -31
-32 3 -3 24 -6 46 -7 22 0 38 -5 36 -9 -3 -5 -2 -8 3 -7 4 1 10 0 13 -1 17 -6
39 -7 35 -1 -2 4 2 8 9 8 9 0 12 -7 8 -16 -5 -13 -3 -14 9 -5 8 7 29 11 47 9
29 -2 31 -1 20 13 -10 12 -10 14 0 8 6 -4 12 -2 12 3 0 11 -19 15 -52 13 -10
-1 -18 2 -18 6 0 5 -6 9 -12 9 -7 1 -28 6 -46 11 -19 6 -30 7 -27 1 10 -15
-12 -10 -25 6 -14 17 -30 20 -30 6z m105 -32 c11 -16 1 -19 -13 -3 -7 8 -8 14
-3 14 5 0 13 -5 16 -11z m-70 -9 c3 -5 1 -10 -4 -10 -6 0 -11 5 -11 10 0 6 2
10 4 10 3 0 8 -4 11 -10z m135 -10 c-8 -5 -19 -10 -25 -10 -5 0 -3 5 5 10 8 5
20 10 25 10 6 0 3 -5 -5 -10z"/>
<path d="M9495 26972 c-13 -9 -18 -32 -7 -32 4 0 13 5 19 11 8 8 13 8 18 0 4
-7 1 -10 -7 -9 -7 2 -12 -3 -10 -10 2 -10 -5 -9 -26 2 -29 15 -75 18 -66 5 4
-7 81 -23 86 -18 2 1 14 -3 27 -10 14 -8 21 -9 17 -2 -10 16 10 13 23 -3 7 -8
22 -13 34 -11 11 3 29 -3 38 -11 10 -9 22 -13 28 -10 5 3 12 0 14 -6 4 -10 6
-9 6 1 1 11 6 10 23 -5 13 -12 18 -13 13 -4 -5 8 -19 23 -32 33 -13 10 -21 23
-18 28 4 5 -2 6 -11 2 -12 -4 -15 -3 -10 5 5 8 1 10 -10 5 -11 -4 -13 -8 -6
-11 7 -2 10 -8 7 -12 -3 -5 -12 -7 -20 -4 -10 4 -12 11 -5 23 6 13 5 18 -5 18
-7 0 -11 -6 -9 -12 3 -7 -3 -18 -12 -26 -16 -12 -17 -12 -11 3 4 13 2 15 -10
11 -13 -5 -14 -3 -3 18 7 13 9 21 5 17 -5 -4 -14 -3 -22 4 -7 6 -16 8 -20 5
-3 -4 -11 -3 -17 3 -7 5 -16 6 -21 2z m58 -26 c3 -8 0 -17 -7 -19 -10 -4 -12
1 -9 14 6 23 9 24 16 5z m126 -50 c9 -11 7 -13 -11 -11 -33 4 -34 4 -18 15 19
12 16 12 29 -4z"/>
<path d="M9735 26891 c2 -32 12 -51 26 -51 6 0 3 7 -6 16 -9 9 -13 24 -10 34
3 10 2 21 -3 24 -5 3 -8 -7 -7 -23z"/>
<path d="M9767 26869 c7 -7 15 -10 18 -7 3 3 -2 9 -12 12 -14 6 -15 5 -6 -5z"/>
<path d="M9796 26851 c-4 -5 -1 -13 5 -17 8 -5 9 -3 4 6 -6 10 -4 12 9 7 10
-4 20 -7 22 -7 3 0 2 -6 -2 -12 -5 -8 -1 -8 12 2 10 8 21 15 23 17 2 1 -5 2
-15 1 -11 0 -26 2 -35 6 -10 4 -20 3 -23 -3z"/>
<path d="M9926 26848 c3 -5 10 -6 15 -3 13 9 11 12 -6 12 -8 0 -12 -4 -9 -9z"/>
<path d="M10486 26672 c-3 -5 1 -9 9 -9 8 0 12 4 9 9 -3 4 -7 8 -9 8 -2 0 -6
-4 -9 -8z"/>
<path d="M10265 13181 c-3 -5 -2 -12 3 -15 5 -3 9 1 9 9 0 17 -3 19 -12 6z"/>
<path d="M10216 13151 c-4 -5 -2 -12 3 -15 5 -4 12 -2 15 3 4 5 2 12 -3 15 -5
4 -12 2 -15 -3z"/>
<path d="M9805 13060 c-4 -6 -10 -8 -13 -6 -4 2 -19 -5 -32 -16 l-25 -20 27
16 c17 10 29 12 33 6 8 -13 -4 -32 -15 -25 -5 3 -11 2 -14 -3 -2 -4 10 -8 29
-8 22 0 37 7 46 21 11 18 11 19 -5 6 -15 -13 -19 -13 -26 -1 -5 9 -5 20 2 27
6 7 8 13 5 13 -3 0 -9 -5 -12 -10z"/>
<path d="M9660 13009 c-18 -14 -20 -17 -6 -12 15 5 17 3 11 -8 -7 -10 -1 -8
18 4 15 10 33 15 39 11 7 -5 8 -3 4 5 -5 7 -14 10 -21 7 -8 -3 -15 -1 -17 4
-2 5 -14 0 -28 -11z"/>
<path d="M9597 12996 c-4 -11 -1 -13 11 -9 14 5 14 3 -3 -18 l-20 -24 22 19
c18 15 20 22 12 33 -14 16 -16 16 -22 -1z"/>
<path d="M9696 12982 c-3 -5 1 -9 9 -9 8 0 12 4 9 9 -3 4 -7 8 -9 8 -2 0 -6
-4 -9 -8z"/>
<path d="M9631 12967 c-8 -10 -7 -14 2 -14 8 0 14 6 14 14 0 7 -1 13 -2 13 -2
0 -8 -6 -14 -13z"/>
<path d="M10623 6525 c0 -8 4 -12 9 -9 5 3 6 10 3 15 -9 13 -12 11 -12 -6z"/>
<path d="M10466 6471 c-4 -5 -2 -12 3 -15 5 -4 12 -2 15 3 4 5 2 12 -3 15 -5
4 -12 2 -15 -3z"/>
<path d="M10369 6433 c-13 -16 -12 -17 4 -4 9 7 17 15 17 17 0 8 -8 3 -21 -13z"/>
<path d="M10109 6303 c-12 -16 -12 -17 2 -6 9 7 20 9 24 5 5 -4 5 -1 1 6 -9
16 -11 15 -27 -5z"/>
<path d="M10223 6305 c0 -8 4 -12 9 -9 5 3 6 10 3 15 -9 13 -12 11 -12 -6z"/>
<path d="M10166 6297 c3 -10 9 -15 12 -12 3 3 0 11 -7 18 -10 9 -11 8 -5 -6z"/>
<path d="M10056 6271 c-4 -5 -2 -12 3 -15 5 -4 12 -2 15 3 4 5 2 12 -3 15 -5
4 -12 2 -15 -3z"/>
<path d="M9957 6199 c7 -9 9 -20 5 -25 -4 -4 1 -2 11 5 9 7 17 16 17 19 0 3
-3 2 -7 -1 -3 -4 -13 -1 -22 6 -14 10 -14 10 -4 -4z"/>
<path d="M9846 6155 c3 -7 1 -16 -5 -20 -6 -3 -11 2 -12 12 0 11 -3 13 -6 5
-2 -6 -8 -10 -13 -7 -4 3 -14 -3 -21 -13 -13 -16 -13 -16 5 -2 18 14 19 13 14
-2 -7 -16 7 -19 29 -5 6 4 13 2 15 -5 5 -13 28 -2 28 14 0 5 -8 7 -17 4 -17
-6 -17 -5 0 8 17 13 16 14 -2 19 -13 3 -18 1 -15 -8z"/>
<path d="M9768 6107 c12 -7 20 -16 16 -19 -3 -4 -17 0 -29 8 -16 10 -25 12
-30 4 -3 -6 -3 -10 2 -9 31 5 37 -9 19 -41 -5 -8 5 -2 23 15 29 27 31 31 15
42 -10 7 -23 13 -28 13 -6 -1 -1 -6 12 -13z"/>
<path d="M9673 6057 c-24 -24 -30 -36 -23 -47 8 -12 10 -12 10 -1 0 9 7 11 21
8 20 -5 20 -5 3 14 -15 17 -7 29 10 12 13 -13 35 -11 29 3 -3 8 -10 14 -15 14
-6 0 -8 7 -4 15 7 20 6 19 -31 -18z"/>
<path d="M9607 6031 c-3 -13 -3 -20 0 -17 4 3 13 0 22 -7 14 -10 14 -10 5 3
-6 8 -13 22 -16 30 -3 10 -6 7 -11 -9z"/>
<path d="M9565 6010 c-10 -11 -23 -20 -29 -19 -25 3 -37 -2 -31 -11 4 -6 1
-18 -6 -26 -7 -9 -14 -26 -16 -37 -2 -12 0 -17 4 -12 5 6 15 11 23 13 8 2 17
8 18 13 2 5 9 6 14 3 7 -4 8 -2 4 4 -5 9 -13 9 -29 1 -21 -10 -21 -10 -3 5 11
9 29 14 40 10 12 -3 16 -2 11 3 -15 12 -12 35 5 42 8 3 16 12 18 19 3 17 -2
15 -23 -8z"/>
<path d="M9601 5990 c-10 -5 -9 -8 2 -13 7 -3 19 -2 26 3 10 5 9 8 -2 13 -7 3
-19 2 -26 -3z"/>
<path d="M9471 5971 c-11 -7 -11 -10 0 -14 10 -4 9 -6 -3 -6 -11 -1 -15 -6
-12 -15 3 -8 0 -17 -7 -22 -8 -4 -10 -3 -5 4 4 7 4 17 1 22 -7 12 -45 -5 -45
-21 0 -6 3 -8 8 -5 4 2 16 -2 27 -10 10 -8 14 -14 9 -14 -6 0 -16 6 -23 13
-11 10 -13 9 -8 -5 5 -13 -2 -22 -26 -33 -29 -14 -30 -14 -13 0 11 8 18 15 15
16 -46 10 -67 8 -72 -6 -4 -8 -2 -15 3 -15 6 0 10 5 10 11 0 5 5 7 11 3 19
-11 -18 -26 -38 -16 -26 13 -47 4 -32 -14 6 -8 16 -11 22 -7 6 3 7 1 3 -5 -4
-7 -2 -12 4 -12 6 0 8 -4 5 -10 -12 -19 4 -10 31 18 15 15 21 18 13 7 -12 -17
-11 -17 15 3 16 12 34 22 41 22 20 0 65 40 65 57 0 9 7 24 16 34 17 19 6 33
-15 20z"/>
<path d="M9370 5910 c0 -6 -5 -8 -12 -4 -7 4 -8 3 -4 -5 4 -6 11 -9 16 -6 5 3
11 1 15 -5 3 -5 12 -10 18 -10 8 0 8 3 -1 9 -8 4 -13 12 -12 17 1 5 -3 10 -9
12 -6 2 -11 -1 -11 -8z"/>
<path d="M9235 5821 c5 -12 3 -12 -11 0 -16 13 -16 12 -5 -9 10 -19 15 -21 27
-12 7 7 11 16 8 21 -3 5 3 6 12 2 11 -4 13 -8 6 -11 -7 -2 -9 -9 -5 -15 3 -7
3 -9 -2 -5 -4 4 -14 3 -21 -3 -8 -7 -14 -7 -19 1 -5 8 -11 8 -19 1 -9 -8 -13
-7 -13 4 0 8 5 11 10 8 6 -3 7 -1 3 5 -5 9 -13 9 -27 1 -16 -8 -18 -13 -8 -25
9 -11 9 -14 0 -14 -7 0 -9 -5 -5 -12 4 -7 3 -8 -4 -4 -14 8 -15 -3 -3 -23 7
-11 11 -10 20 5 6 11 11 15 11 9 0 -5 8 1 16 15 8 14 13 17 10 7 -5 -17 -2
-16 33 4 38 21 43 32 28 56 -11 17 -49 12 -42 -6z"/>
<path d="M9112 5767 c-17 -12 -32 -26 -32 -31 0 -6 5 -5 12 2 7 7 19 12 28 12
9 0 5 -6 -10 -14 -14 -7 -29 -9 -34 -4 -12 10 -26 11 -26 1 0 -5 14 -16 30
-25 25 -14 32 -15 44 -3 7 8 16 11 20 8 10 -10 7 17 -5 39 -7 13 -7 18 -1 14
6 -3 13 -2 16 3 13 20 -12 19 -42 -2z"/>
<path d="M9009 5708 c-8 -7 -12 -12 -10 -11 2 2 11 -3 19 -10 13 -10 15 -9 9
5 -4 11 -2 15 7 12 7 -3 13 -11 13 -19 0 -8 -3 -13 -5 -10 -3 3 -10 -3 -17
-12 -9 -13 -14 -13 -20 -3 -6 9 -4 11 5 5 8 -5 11 -3 8 5 -6 20 -46 22 -74 4
-19 -13 -22 -20 -13 -30 12 -14 29 -10 29 7 0 6 -4 7 -10 4 -15 -9 -12 1 3 14
10 8 14 7 14 -2 0 -6 2 -19 4 -27 5 -18 -20 -20 -48 -2 -14 9 -23 10 -28 3
-11 -18 5 -34 21 -20 11 9 15 8 20 -5 5 -13 17 -10 75 22 37 20 71 44 74 52 3
8 3 11 -1 8 -3 -4 -13 -1 -21 7 -18 18 -35 19 -54 3z"/>
</g>
</svg>
